#N canvas 0 0 1400 900 10;
#X text 20 20 AI Audio Vision Lab -- main.pd (generato -- pattern player);
#X obj 20 42 loadbang;
#X msg 20 64 \; pd dsp 1;
#X obj 20 86 udpreceive 9000;
#X obj 20 108 unpackOSC;
#X obj 20 130 pipelist;
#X obj 20 152 routeOSC /scale_root /tempo_bpm /reverb_mix /duration_seconds /scale_intervals /score/total_steps;
#X obj 20 174 value scale_root;
#X obj 20 196 value tempo_bpm;
#X obj 20 218 list prepend wet;
#X obj 20 240 list trim;
#X obj 20 262 expr 1 - $f1;
#X obj 20 284 list prepend dry;
#X obj 20 306 list trim;
#X obj 20 328 value duration_seconds;
#X obj 20 350 table scale_table 12;
#X obj 20 372 array set scale_table;
#X obj 20 394 value total_steps;
#X obj 20 416 print osc_unmatched_top;
#X obj 20 438 routeOSC /melody/onset /melody/chunk /bass/onset /bass/chunk /drums/kick/onset /drums/kick/chunk /drums/hat/onset /drums/hat/chunk;
#X obj 20 460 table melody_notes 2560;
#X obj 20 482 array set melody_notes;
#X obj 20 504 table bass_notes 2560;
#X obj 20 526 array set bass_notes;
#X obj 20 548 table drum_kick 2560;
#X obj 20 570 array set drum_kick;
#X obj 20 592 table drum_hat 2560;
#X obj 20 614 array set drum_hat;
#X obj 20 636 print osc_unmatched_patterns;
#X obj 20 658 freeverb~;
#X obj 20 680 writesf~ 1;
#X obj 20 702 metro 125;
#X obj 20 724 f 0;
#X obj 20 746 + 1;
#X obj 20 768 moses 2560;
#X obj 20 790 routeOSC /render/start;
#X msg 20 812 open /tmp/pd_render/current.wav;
#X msg 20 834 start;
#X obj 20 856 t b;
#X msg 20 878 0;
#X obj 20 900 expr 60000 / $f1 / 4;
#X msg 20 922 1;
#X obj 20 944 * 1000;
#X obj 20 966 del 0;
#X msg 20 988 0;
#X msg 20 1010 stop;
#X obj 20 1032 del 300;
#X msg 20 1054 write /tmp/pd_render/current.done;
#X obj 20 1076 textfile;
#X msg 20 1098 add 1;
#X obj 20 1120 tabread melody_notes;
#X obj 20 1142 select -1 -2;
#X obj 20 1164 routeOSC /voice/1/type /voice/1/amplitude /voice/1/inharmonicity;
#X obj 20 1186 tabread scale_table;
#X obj 20 1208 t b f;
#X obj 20 1230 + 0;
#X obj 20 1252 mtof;
#X obj 20 1274 vline~;
#X msg 20 1296 1 8;
#X msg 20 1318 0.7 40 8;
#X msg 20 1340 0 110;
#X obj 20 1362 symbol;
#X obj 20 1384 select sine saw square fm;
#X msg 20 1406 1 0 0 0;
#X msg 20 1428 0 1 0 0;
#X msg 20 1450 0 0 1 0;
#X msg 20 1472 0 0 0 1;
#X obj 20 1494 unpack 0 0 0 0;
#X obj 20 1516 expr $f1 * (1 + 0.03 * $f2);
#X obj 20 1538 osc~;
#X obj 20 1560 *~ 0;
#X obj 20 1582 phasor~;
#X obj 175 20 *~ 2;
#X obj 175 42 -~ 1;
#X obj 175 64 *~ 0;
#X obj 175 86 phasor~;
#X obj 175 108 expr~ ($v1 > 0.5) * 2 - 1;
#X obj 175 130 *~ 0;
#X obj 175 152 expr $f1 * $f2 * 2;
#X obj 175 174 expr $f1 * 1.5;
#X obj 175 196 osc~;
#X obj 175 218 *~;
#X obj 175 240 +~;
#X obj 175 262 osc~;
#X obj 175 284 *~ 0;
#X obj 175 306 +~;
#X obj 175 328 +~;
#X obj 175 350 +~;
#X obj 175 372 *~;
#X obj 175 394 *~ 0;
#X obj 175 416 tabread bass_notes;
#X obj 175 438 select -1 -2;
#X obj 175 460 routeOSC /voice/2/type /voice/2/amplitude /voice/2/inharmonicity;
#X obj 175 482 tabread scale_table;
#X obj 175 504 t b f;
#X obj 175 526 + 0;
#X obj 175 548 mtof;
#X obj 175 570 vline~;
#X msg 175 592 1 8;
#X msg 175 614 0.7 40 8;
#X msg 175 636 0 110;
#X obj 175 658 symbol;
#X obj 175 680 select sine saw square fm;
#X msg 175 702 1 0 0 0;
#X msg 175 724 0 1 0 0;
#X msg 175 746 0 0 1 0;
#X msg 175 768 0 0 0 1;
#X obj 175 790 unpack 0 0 0 0;
#X obj 175 812 expr $f1 * (1 + 0.03 * $f2);
#X obj 175 834 osc~;
#X obj 175 856 *~ 0;
#X obj 175 878 phasor~;
#X obj 175 900 *~ 2;
#X obj 175 922 -~ 1;
#X obj 175 944 *~ 0;
#X obj 175 966 phasor~;
#X obj 175 988 expr~ ($v1 > 0.5) * 2 - 1;
#X obj 175 1010 *~ 0;
#X obj 175 1032 expr $f1 * $f2 * 2;
#X obj 175 1054 expr $f1 * 1.5;
#X obj 175 1076 osc~;
#X obj 175 1098 *~;
#X obj 175 1120 +~;
#X obj 175 1142 osc~;
#X obj 175 1164 *~ 0;
#X obj 175 1186 +~;
#X obj 175 1208 +~;
#X obj 175 1230 +~;
#X obj 175 1252 *~;
#X obj 175 1274 *~ 0;
#X obj 175 1296 routeOSC /voice/3/freq_offset;
#X obj 175 1318 routeOSC /voice/3/type /voice/3/amplitude /voice/3/inharmonicity;
#X obj 175 1340 tabread scale_table;
#X obj 175 1362 t b f;
#X obj 175 1384 + 0;
#X obj 175 1406 mtof;
#X obj 175 1428 + 0;
#X obj 175 1450 vline~;
#X msg 175 1472 1 8;
#X msg 175 1494 0.7 40 8;
#X msg 175 1516 0 110;
#X obj 175 1538 symbol;
#X obj 175 1560 select sine saw square fm;
#X msg 175 1582 1 0 0 0;
#X msg 330 20 0 1 0 0;
#X msg 330 42 0 0 1 0;
#X msg 330 64 0 0 0 1;
#X obj 330 86 unpack 0 0 0 0;
#X obj 330 108 expr $f1 * (1 + 0.03 * $f2);
#X obj 330 130 osc~;
#X obj 330 152 *~ 0;
#X obj 330 174 phasor~;
#X obj 330 196 *~ 2;
#X obj 330 218 -~ 1;
#X obj 330 240 *~ 0;
#X obj 330 262 phasor~;
#X obj 330 284 expr~ ($v1 > 0.5) * 2 - 1;
#X obj 330 306 *~ 0;
#X obj 330 328 expr $f1 * $f2 * 2;
#X obj 330 350 expr $f1 * 1.5;
#X obj 330 372 osc~;
#X obj 330 394 *~;
#X obj 330 416 +~;
#X obj 330 438 osc~;
#X obj 330 460 *~ 0;
#X obj 330 482 +~;
#X obj 330 504 +~;
#X obj 330 526 +~;
#X obj 330 548 *~;
#X obj 330 570 *~ 0;
#X obj 330 592 tabread drum_kick;
#X obj 330 614 select 1;
#X obj 330 636 vline~;
#X msg 330 658 150 0;
#X msg 330 680 50 40;
#X obj 330 702 osc~;
#X obj 330 724 vline~;
#X msg 330 746 1 2;
#X msg 330 768 0 150 2;
#X obj 330 790 *~;
#X obj 330 812 *~ 0.9;
#X obj 330 834 tabread drum_hat;
#X obj 330 856 select 1;
#X obj 330 878 noise~;
#X obj 330 900 hip~ 6000;
#X obj 330 922 vline~;
#X msg 330 944 1 1;
#X msg 330 966 0 40 1;
#X obj 330 988 *~;
#X obj 330 1010 *~ 0.5;
#X obj 330 1032 +~;
#X obj 330 1054 +~;
#X obj 330 1076 +~;
#X obj 330 1098 +~;
#X obj 330 1120 *~ 0.2;
#X connect 1 0 2 0;
#X connect 3 0 4 0;
#X connect 4 0 5 0;
#X connect 5 0 6 0;
#X connect 6 0 7 0;
#X connect 6 1 8 0;
#X connect 6 2 9 0;
#X connect 9 0 10 0;
#X connect 6 2 11 0;
#X connect 11 0 12 0;
#X connect 12 0 13 0;
#X connect 6 3 14 0;
#X connect 6 4 16 0;
#X connect 6 5 17 0;
#X connect 6 6 18 0;
#X connect 5 0 19 0;
#X connect 19 0 21 1;
#X connect 19 1 21 0;
#X connect 19 2 23 1;
#X connect 19 3 23 0;
#X connect 19 4 25 1;
#X connect 19 5 25 0;
#X connect 19 6 27 1;
#X connect 19 7 27 0;
#X connect 19 8 28 0;
#X connect 10 0 29 0;
#X connect 13 0 29 0;
#X connect 29 0 30 0;
#X connect 31 0 32 0;
#X connect 32 0 33 0;
#X connect 33 0 32 1;
#X connect 32 0 34 0;
#X connect 5 0 35 0;
#X connect 35 0 36 0;
#X connect 35 0 37 0;
#X connect 36 0 30 0;
#X connect 37 0 30 0;
#X connect 35 0 38 0;
#X connect 35 0 39 0;
#X connect 39 0 32 1;
#X connect 38 0 17 0;
#X connect 17 0 34 1;
#X connect 38 0 8 0;
#X connect 8 0 40 0;
#X connect 40 0 31 1;
#X connect 35 0 41 0;
#X connect 41 0 31 0;
#X connect 38 0 14 0;
#X connect 14 0 42 0;
#X connect 42 0 43 0;
#X connect 43 0 44 0;
#X connect 44 0 31 0;
#X connect 43 0 45 0;
#X connect 45 0 30 0;
#X connect 43 0 46 0;
#X connect 46 0 47 0;
#X connect 47 0 48 0;
#X connect 1 0 49 0;
#X connect 49 0 48 0;
#X connect 34 0 50 0;
#X connect 50 0 51 0;
#X connect 5 0 52 0;
#X connect 51 2 53 0;
#X connect 53 0 54 0;
#X connect 54 1 55 1;
#X connect 54 0 7 0;
#X connect 7 0 55 0;
#X connect 55 0 56 0;
#X connect 51 2 58 0;
#X connect 51 2 59 0;
#X connect 58 0 57 0;
#X connect 59 0 57 0;
#X connect 51 0 60 0;
#X connect 60 0 57 0;
#X connect 52 0 61 0;
#X connect 61 0 62 0;
#X connect 62 0 63 0;
#X connect 62 1 64 0;
#X connect 62 2 65 0;
#X connect 62 3 66 0;
#X connect 63 0 67 0;
#X connect 64 0 67 0;
#X connect 65 0 67 0;
#X connect 66 0 67 0;
#X connect 56 0 68 0;
#X connect 52 2 68 1;
#X connect 68 0 69 0;
#X connect 69 0 70 0;
#X connect 67 0 70 1;
#X connect 68 0 71 0;
#X connect 71 0 72 0;
#X connect 72 0 73 0;
#X connect 73 0 74 0;
#X connect 67 1 74 1;
#X connect 68 0 75 0;
#X connect 75 0 76 0;
#X connect 76 0 77 0;
#X connect 67 2 77 1;
#X connect 68 0 78 0;
#X connect 52 2 78 1;
#X connect 68 0 79 0;
#X connect 79 0 80 0;
#X connect 80 0 81 0;
#X connect 78 0 81 1;
#X connect 81 0 82 0;
#X connect 68 0 82 1;
#X connect 82 0 83 0;
#X connect 83 0 84 0;
#X connect 67 3 84 1;
#X connect 70 0 85 0;
#X connect 74 0 85 1;
#X connect 85 0 86 0;
#X connect 77 0 86 1;
#X connect 86 0 87 0;
#X connect 84 0 87 1;
#X connect 87 0 88 0;
#X connect 57 0 88 1;
#X connect 88 0 89 0;
#X connect 52 1 89 1;
#X connect 34 0 90 0;
#X connect 90 0 91 0;
#X connect 5 0 92 0;
#X connect 91 2 93 0;
#X connect 93 0 94 0;
#X connect 94 1 95 1;
#X connect 94 0 7 0;
#X connect 7 0 95 0;
#X connect 95 0 96 0;
#X connect 91 2 98 0;
#X connect 91 2 99 0;
#X connect 98 0 97 0;
#X connect 99 0 97 0;
#X connect 91 0 100 0;
#X connect 100 0 97 0;
#X connect 92 0 101 0;
#X connect 101 0 102 0;
#X connect 102 0 103 0;
#X connect 102 1 104 0;
#X connect 102 2 105 0;
#X connect 102 3 106 0;
#X connect 103 0 107 0;
#X connect 104 0 107 0;
#X connect 105 0 107 0;
#X connect 106 0 107 0;
#X connect 96 0 108 0;
#X connect 92 2 108 1;
#X connect 108 0 109 0;
#X connect 109 0 110 0;
#X connect 107 0 110 1;
#X connect 108 0 111 0;
#X connect 111 0 112 0;
#X connect 112 0 113 0;
#X connect 113 0 114 0;
#X connect 107 1 114 1;
#X connect 108 0 115 0;
#X connect 115 0 116 0;
#X connect 116 0 117 0;
#X connect 107 2 117 1;
#X connect 108 0 118 0;
#X connect 92 2 118 1;
#X connect 108 0 119 0;
#X connect 119 0 120 0;
#X connect 120 0 121 0;
#X connect 118 0 121 1;
#X connect 121 0 122 0;
#X connect 108 0 122 1;
#X connect 122 0 123 0;
#X connect 123 0 124 0;
#X connect 107 3 124 1;
#X connect 110 0 125 0;
#X connect 114 0 125 1;
#X connect 125 0 126 0;
#X connect 117 0 126 1;
#X connect 126 0 127 0;
#X connect 124 0 127 1;
#X connect 127 0 128 0;
#X connect 97 0 128 1;
#X connect 128 0 129 0;
#X connect 92 1 129 1;
#X connect 5 0 130 0;
#X connect 5 0 131 0;
#X connect 51 2 132 0;
#X connect 132 0 133 0;
#X connect 133 1 134 1;
#X connect 133 0 7 0;
#X connect 7 0 134 0;
#X connect 134 0 135 0;
#X connect 135 0 136 0;
#X connect 130 0 136 1;
#X connect 51 2 138 0;
#X connect 51 2 139 0;
#X connect 138 0 137 0;
#X connect 139 0 137 0;
#X connect 51 0 140 0;
#X connect 140 0 137 0;
#X connect 131 0 141 0;
#X connect 141 0 142 0;
#X connect 142 0 143 0;
#X connect 142 1 144 0;
#X connect 142 2 145 0;
#X connect 142 3 146 0;
#X connect 143 0 147 0;
#X connect 144 0 147 0;
#X connect 145 0 147 0;
#X connect 146 0 147 0;
#X connect 136 0 148 0;
#X connect 131 2 148 1;
#X connect 148 0 149 0;
#X connect 149 0 150 0;
#X connect 147 0 150 1;
#X connect 148 0 151 0;
#X connect 151 0 152 0;
#X connect 152 0 153 0;
#X connect 153 0 154 0;
#X connect 147 1 154 1;
#X connect 148 0 155 0;
#X connect 155 0 156 0;
#X connect 156 0 157 0;
#X connect 147 2 157 1;
#X connect 148 0 158 0;
#X connect 131 2 158 1;
#X connect 148 0 159 0;
#X connect 159 0 160 0;
#X connect 160 0 161 0;
#X connect 158 0 161 1;
#X connect 161 0 162 0;
#X connect 148 0 162 1;
#X connect 162 0 163 0;
#X connect 163 0 164 0;
#X connect 147 3 164 1;
#X connect 150 0 165 0;
#X connect 154 0 165 1;
#X connect 165 0 166 0;
#X connect 157 0 166 1;
#X connect 166 0 167 0;
#X connect 164 0 167 1;
#X connect 167 0 168 0;
#X connect 137 0 168 1;
#X connect 168 0 169 0;
#X connect 131 1 169 1;
#X connect 34 0 170 0;
#X connect 170 0 171 0;
#X connect 171 0 173 0;
#X connect 171 0 174 0;
#X connect 173 0 172 0;
#X connect 174 0 172 0;
#X connect 172 0 175 0;
#X connect 171 0 177 0;
#X connect 171 0 178 0;
#X connect 177 0 176 0;
#X connect 178 0 176 0;
#X connect 175 0 179 0;
#X connect 176 0 179 1;
#X connect 179 0 180 0;
#X connect 34 0 181 0;
#X connect 181 0 182 0;
#X connect 183 0 184 0;
#X connect 182 0 186 0;
#X connect 182 0 187 0;
#X connect 186 0 185 0;
#X connect 187 0 185 0;
#X connect 184 0 188 0;
#X connect 185 0 188 1;
#X connect 188 0 189 0;
#X connect 89 0 190 0;
#X connect 129 0 190 1;
#X connect 190 0 191 0;
#X connect 169 0 191 1;
#X connect 191 0 192 0;
#X connect 180 0 192 1;
#X connect 192 0 193 0;
#X connect 189 0 193 1;
#X connect 193 0 194 0;
#X connect 194 0 29 0;
#X connect 194 0 29 1;
