#N canvas 0 0 1400 900 10;
#X text 20 20 AI Audio Vision Lab -- main.pd (generato);
#X obj 20 44 loadbang;
#X msg 20 68 \; pd dsp 1;
#X obj 20 92 udpreceive 9000;
#X obj 20 116 unpackOSC;
#X obj 20 140 pipelist;
#X obj 20 164 routeOSC /scale_root /tempo_bpm /reverb_mix /duration_seconds /scale_intervals;
#X obj 20 188 value scale_root;
#X obj 20 212 value tempo_bpm;
#X obj 20 236 print tempo_bpm;
#X obj 20 260 list prepend wet;
#X obj 20 284 list trim;
#X obj 20 308 expr 1 - $f1;
#X obj 20 332 list prepend dry;
#X obj 20 356 list trim;
#X obj 20 380 value duration_seconds;
#X obj 20 404 print scale_intervals;
#X obj 20 428 print osc_unmatched_top;
#X obj 20 452 freeverb~;
#X obj 20 476 writesf~ 1;
#X obj 20 500 routeOSC /render/start;
#X msg 20 524 open /tmp/pd_render/current.wav;
#X msg 20 548 start;
#X obj 20 572 * 1000;
#X obj 20 596 del 0;
#X obj 20 620 t b;
#X msg 20 644 stop;
#X obj 20 668 del 300;
#X msg 20 692 write /tmp/pd_render/current.done;
#X obj 20 716 textfile;
#X msg 20 740 add 1;
#X obj 20 764 routeOSC /voice/1/type /voice/1/amplitude /voice/1/inharmonicity /voice/1/freq_offset;
#X obj 20 788 symbol;
#X obj 20 812 select sine saw square fm;
#X msg 20 836 1 0 0 0;
#X msg 20 860 0 1 0 0;
#X msg 20 884 0 0 1 0;
#X msg 20 908 0 0 0 1;
#X obj 20 932 unpack 0 0 0 0;
#X obj 20 956 t b f;
#X obj 20 980 + 0;
#X obj 20 1004 mtof;
#X obj 20 1028 expr $f1 * (1 + 0.03 * $f2);
#X obj 20 1052 osc~;
#X obj 20 1076 *~ 0;
#X obj 20 1100 phasor~;
#X obj 20 1124 *~ 2;
#X obj 20 1148 -~ 1;
#X obj 20 1172 *~ 0;
#X obj 20 1196 phasor~;
#X obj 20 1220 expr~ ($v1 > 0.5) * 2 - 1;
#X obj 20 1244 *~ 0;
#X obj 20 1268 expr $f1 * $f2 * 2;
#X obj 20 1292 expr $f1 * 1.5;
#X obj 20 1316 osc~;
#X obj 20 1340 *~;
#X obj 20 1364 +~;
#X obj 20 1388 osc~;
#X obj 180 20 *~ 0;
#X obj 180 44 +~;
#X obj 180 68 +~;
#X obj 180 92 +~;
#X obj 180 116 *~ 0;
#X obj 180 140 routeOSC /voice/2/type /voice/2/amplitude /voice/2/inharmonicity /voice/2/freq_offset;
#X obj 180 164 symbol;
#X obj 180 188 select sine saw square fm;
#X msg 180 212 1 0 0 0;
#X msg 180 236 0 1 0 0;
#X msg 180 260 0 0 1 0;
#X msg 180 284 0 0 0 1;
#X obj 180 308 unpack 0 0 0 0;
#X obj 180 332 t b f;
#X obj 180 356 + 0;
#X obj 180 380 mtof;
#X obj 180 404 expr $f1 * (1 + 0.03 * $f2);
#X obj 180 428 osc~;
#X obj 180 452 *~ 0;
#X obj 180 476 phasor~;
#X obj 180 500 *~ 2;
#X obj 180 524 -~ 1;
#X obj 180 548 *~ 0;
#X obj 180 572 phasor~;
#X obj 180 596 expr~ ($v1 > 0.5) * 2 - 1;
#X obj 180 620 *~ 0;
#X obj 180 644 expr $f1 * $f2 * 2;
#X obj 180 668 expr $f1 * 1.5;
#X obj 180 692 osc~;
#X obj 180 716 *~;
#X obj 180 740 +~;
#X obj 180 764 osc~;
#X obj 180 788 *~ 0;
#X obj 180 812 +~;
#X obj 180 836 +~;
#X obj 180 860 +~;
#X obj 180 884 *~ 0;
#X obj 180 908 routeOSC /voice/3/type /voice/3/amplitude /voice/3/inharmonicity /voice/3/freq_offset;
#X obj 180 932 symbol;
#X obj 180 956 select sine saw square fm;
#X msg 180 980 1 0 0 0;
#X msg 180 1004 0 1 0 0;
#X msg 180 1028 0 0 1 0;
#X msg 180 1052 0 0 0 1;
#X obj 180 1076 unpack 0 0 0 0;
#X obj 180 1100 t b f;
#X obj 180 1124 + 0;
#X obj 180 1148 mtof;
#X obj 180 1172 expr $f1 * (1 + 0.03 * $f2);
#X obj 180 1196 osc~;
#X obj 180 1220 *~ 0;
#X obj 180 1244 phasor~;
#X obj 180 1268 *~ 2;
#X obj 180 1292 -~ 1;
#X obj 180 1316 *~ 0;
#X obj 180 1340 phasor~;
#X obj 180 1364 expr~ ($v1 > 0.5) * 2 - 1;
#X obj 180 1388 *~ 0;
#X obj 340 20 expr $f1 * $f2 * 2;
#X obj 340 44 expr $f1 * 1.5;
#X obj 340 68 osc~;
#X obj 340 92 *~;
#X obj 340 116 +~;
#X obj 340 140 osc~;
#X obj 340 164 *~ 0;
#X obj 340 188 +~;
#X obj 340 212 +~;
#X obj 340 236 +~;
#X obj 340 260 *~ 0;
#X obj 340 284 +~;
#X obj 340 308 +~;
#X obj 340 332 *~ 0.33;
#X connect 1 0 2 0;
#X connect 3 0 4 0;
#X connect 4 0 5 0;
#X connect 5 0 6 0;
#X connect 6 0 7 0;
#X connect 6 1 8 0;
#X connect 6 1 9 0;
#X connect 6 2 10 0;
#X connect 10 0 11 0;
#X connect 6 2 12 0;
#X connect 12 0 13 0;
#X connect 13 0 14 0;
#X connect 6 3 15 0;
#X connect 6 4 16 0;
#X connect 6 5 17 0;
#X connect 11 0 18 0;
#X connect 14 0 18 0;
#X connect 18 0 19 0;
#X connect 5 0 20 0;
#X connect 20 0 21 0;
#X connect 20 0 22 0;
#X connect 21 0 19 0;
#X connect 22 0 19 0;
#X connect 20 0 25 0;
#X connect 25 0 15 0;
#X connect 15 0 23 0;
#X connect 23 0 24 0;
#X connect 24 0 26 0;
#X connect 26 0 19 0;
#X connect 24 0 27 0;
#X connect 27 0 28 0;
#X connect 28 0 29 0;
#X connect 1 0 30 0;
#X connect 30 0 29 0;
#X connect 5 0 31 0;
#X connect 31 0 32 0;
#X connect 32 0 33 0;
#X connect 33 0 34 0;
#X connect 33 1 35 0;
#X connect 33 2 36 0;
#X connect 33 3 37 0;
#X connect 34 0 38 0;
#X connect 35 0 38 0;
#X connect 36 0 38 0;
#X connect 37 0 38 0;
#X connect 31 3 39 0;
#X connect 39 1 40 1;
#X connect 39 0 7 0;
#X connect 7 0 40 0;
#X connect 40 0 41 0;
#X connect 41 0 42 0;
#X connect 31 2 42 1;
#X connect 42 0 43 0;
#X connect 43 0 44 0;
#X connect 38 0 44 1;
#X connect 42 0 45 0;
#X connect 45 0 46 0;
#X connect 46 0 47 0;
#X connect 47 0 48 0;
#X connect 38 1 48 1;
#X connect 42 0 49 0;
#X connect 49 0 50 0;
#X connect 50 0 51 0;
#X connect 38 2 51 1;
#X connect 42 0 52 0;
#X connect 31 2 52 1;
#X connect 42 0 53 0;
#X connect 53 0 54 0;
#X connect 54 0 55 0;
#X connect 52 0 55 1;
#X connect 55 0 56 0;
#X connect 42 0 56 1;
#X connect 56 0 57 0;
#X connect 57 0 58 0;
#X connect 38 3 58 1;
#X connect 44 0 59 0;
#X connect 48 0 59 1;
#X connect 59 0 60 0;
#X connect 51 0 60 1;
#X connect 60 0 61 0;
#X connect 58 0 61 1;
#X connect 61 0 62 0;
#X connect 31 1 62 1;
#X connect 5 0 63 0;
#X connect 63 0 64 0;
#X connect 64 0 65 0;
#X connect 65 0 66 0;
#X connect 65 1 67 0;
#X connect 65 2 68 0;
#X connect 65 3 69 0;
#X connect 66 0 70 0;
#X connect 67 0 70 0;
#X connect 68 0 70 0;
#X connect 69 0 70 0;
#X connect 63 3 71 0;
#X connect 71 1 72 1;
#X connect 71 0 7 0;
#X connect 7 0 72 0;
#X connect 72 0 73 0;
#X connect 73 0 74 0;
#X connect 63 2 74 1;
#X connect 74 0 75 0;
#X connect 75 0 76 0;
#X connect 70 0 76 1;
#X connect 74 0 77 0;
#X connect 77 0 78 0;
#X connect 78 0 79 0;
#X connect 79 0 80 0;
#X connect 70 1 80 1;
#X connect 74 0 81 0;
#X connect 81 0 82 0;
#X connect 82 0 83 0;
#X connect 70 2 83 1;
#X connect 74 0 84 0;
#X connect 63 2 84 1;
#X connect 74 0 85 0;
#X connect 85 0 86 0;
#X connect 86 0 87 0;
#X connect 84 0 87 1;
#X connect 87 0 88 0;
#X connect 74 0 88 1;
#X connect 88 0 89 0;
#X connect 89 0 90 0;
#X connect 70 3 90 1;
#X connect 76 0 91 0;
#X connect 80 0 91 1;
#X connect 91 0 92 0;
#X connect 83 0 92 1;
#X connect 92 0 93 0;
#X connect 90 0 93 1;
#X connect 93 0 94 0;
#X connect 63 1 94 1;
#X connect 5 0 95 0;
#X connect 95 0 96 0;
#X connect 96 0 97 0;
#X connect 97 0 98 0;
#X connect 97 1 99 0;
#X connect 97 2 100 0;
#X connect 97 3 101 0;
#X connect 98 0 102 0;
#X connect 99 0 102 0;
#X connect 100 0 102 0;
#X connect 101 0 102 0;
#X connect 95 3 103 0;
#X connect 103 1 104 1;
#X connect 103 0 7 0;
#X connect 7 0 104 0;
#X connect 104 0 105 0;
#X connect 105 0 106 0;
#X connect 95 2 106 1;
#X connect 106 0 107 0;
#X connect 107 0 108 0;
#X connect 102 0 108 1;
#X connect 106 0 109 0;
#X connect 109 0 110 0;
#X connect 110 0 111 0;
#X connect 111 0 112 0;
#X connect 102 1 112 1;
#X connect 106 0 113 0;
#X connect 113 0 114 0;
#X connect 114 0 115 0;
#X connect 102 2 115 1;
#X connect 106 0 116 0;
#X connect 95 2 116 1;
#X connect 106 0 117 0;
#X connect 117 0 118 0;
#X connect 118 0 119 0;
#X connect 116 0 119 1;
#X connect 119 0 120 0;
#X connect 106 0 120 1;
#X connect 120 0 121 0;
#X connect 121 0 122 0;
#X connect 102 3 122 1;
#X connect 108 0 123 0;
#X connect 112 0 123 1;
#X connect 123 0 124 0;
#X connect 115 0 124 1;
#X connect 124 0 125 0;
#X connect 122 0 125 1;
#X connect 125 0 126 0;
#X connect 95 1 126 1;
#X connect 62 0 127 0;
#X connect 94 0 127 1;
#X connect 127 0 128 0;
#X connect 126 0 128 1;
#X connect 128 0 129 0;
#X connect 129 0 18 0;
#X connect 129 0 18 1;
